<?xml version="1.0" encoding="UTF-8" standalone="no"?>
<svg
   xmlns:dc="http://purl.org/dc/elements/1.1/"
   xmlns:cc="http://creativecommons.org/ns#"
   xmlns:rdf="http://www.w3.org/1999/02/22-rdf-syntax-ns#"
   xmlns:svg="http://www.w3.org/2000/svg"
   xmlns="http://www.w3.org/2000/svg"
   xmlns:sodipodi="http://sodipodi.sourceforge.net/DTD/sodipodi-0.dtd"
   xmlns:inkscape="http://www.inkscape.org/namespaces/inkscape"
   width="7491.3706"
   height="2271.5203"
   viewBox="0 0 7491.3706 2271.5203"
   id="svg4136"
   version="1.1"
   inkscape:version="0.92.3 (2405546, 2018-03-11)"
   sodipodi:docname="logo.svg"
   inkscape:export-filename="C:\Users\Patchouli\Desktop\text4167.png"
   inkscape:export-xdpi="8.4099998"
   inkscape:export-ydpi="8.4099998">
  <metadata
     id="metadata4144">
    <rdf:RDF>
      <cc:Work
         rdf:about="">
        <dc:format>image/svg+xml</dc:format>
        <dc:type
           rdf:resource="http://purl.org/dc/dcmitype/StillImage" />
        <dc:title />
      </cc:Work>
    </rdf:RDF>
  </metadata>
  <defs
     id="defs4142" />
  <sodipodi:namedview
     pagecolor="#ffffff"
     bordercolor="#666666"
     borderopacity="1"
     objecttolerance="10"
     gridtolerance="10"
     guidetolerance="10"
     inkscape:pageopacity="0"
     inkscape:pageshadow="2"
     inkscape:window-width="1920"
     inkscape:window-height="1057"
     id="namedview4140"
     showgrid="false"
     inkscape:zoom="0.11313708"
     inkscape:cx="407.31497"
     inkscape:cy="-194.54512"
     inkscape:window-x="-8"
     inkscape:window-y="-8"
     inkscape:window-maximized="1"
     inkscape:current-layer="svg4136"
     fit-margin-top="0"
     fit-margin-left="0"
     fit-margin-right="0"
     fit-margin-bottom="0" />
  <flowRoot
     xml:space="preserve"
     id="flowRoot4159"
     style="font-style:normal;font-weight:normal;line-height:0.01%;font-family:sans-serif;letter-spacing:0px;word-spacing:0px;fill:#000000;fill-opacity:1;stroke:none;stroke-width:1px;stroke-linecap:butt;stroke-linejoin:miter;stroke-opacity:1"
     transform="matrix(50.703613,0,0,50.703613,-105570.56,-73343.844)"><flowRegion
       id="flowRegion4161"><rect
         id="rect4163"
         width="2557.1021"
         height="1415.5386"
         x="2203.2173"
         y="193.81126" /></flowRegion><flowPara
       id="flowPara4165"> </flowPara></flowRoot>  <g
     aria-label="LANraragi"
     class="logo"
     style="font-style:normal;font-weight:normal;font-size:1102.74951172px;line-height:0%;font-family:sans-serif;letter-spacing:0px;word-spacing:0px;fill:#000000;fill-opacity:1;stroke:none;stroke-width:91.8957901px;stroke-linecap:butt;stroke-linejoin:miter;stroke-opacity:1"
     id="text4167">
    <path
       d="m 2457.8434,1182.0885 v 740.9098 h 409.2235 v 62.9989 h -481.9145 v -803.9087 z"
       style="font-style:normal;font-variant:normal;font-weight:normal;font-stretch:normal;font-family:'Yu Gothic';-inkscape-font-specification:'Yu Gothic';stroke-width:91.8957901px"
       id="path5247" />
    <path
       d="m 3324.751,1182.0885 265.4568,803.9087 h -76.9987 l -85.0754,-265.4568 h -303.1484 l -87.2292,265.4568 h -72.691 l 265.9952,-803.9087 z m 86.6907,479.7607 -66.768,-209.4578 q -36.0763,-109.3058 -64.0758,-213.227 h -10.2306 q -29.0764,107.6904 -62.4604,212.1501 l -66.2296,210.5347 z"
       style="font-style:normal;font-variant:normal;font-weight:normal;font-stretch:normal;font-family:'Yu Gothic';-inkscape-font-specification:'Yu Gothic';stroke-width:91.8957901px"
       id="path5249" />
    <path
       d="m 4334.8868,1182.0885 v 803.9087 h -93.6907 l -290.2255,-520.683 q -44.6915,-82.9216 -114.6903,-220.2268 h -10.769 q 2.1538,171.7661 2.1538,241.2264 v 499.6834 h -68.3834 v -803.9087 h 112.5364 l 276.7643,496.4527 q 49.5376,92.0752 114.6903,225.6113 h 10.769 q -7.5383,-142.6897 -7.5383,-250.3801 v -471.6839 z"
       style="font-style:normal;font-variant:normal;font-weight:normal;font-stretch:normal;font-family:'Yu Gothic';-inkscape-font-specification:'Yu Gothic';stroke-width:91.8957901px"
       id="path5251" />
    <path
       d="m 4820.5704,1421.1611 -5.3845,68.3834 q -58.1528,0 -107.6904,50.0761 -46.3069,46.3068 -69.9988,123.3055 v 323.0711 h -67.3064 v -551.3748 h 65.1526 v 143.2283 q 32.3072,-82.3832 87.2292,-123.3055 45.23,-33.3841 97.9983,-33.3841 z"
       style="font-style:normal;font-variant:normal;font-weight:normal;font-stretch:normal;font-family:'Yu Gothic';-inkscape-font-specification:'Yu Gothic';stroke-width:91.8957901px"
       id="path5253" />
    <path
       d="m 4955.1833,1562.774 q 49.5376,-141.6129 216.9961,-141.6129 195.4581,0 195.4581,183.0737 v 194.3811 q 0,110.3827 13.4613,187.3813 h -64.0758 q -6.9999,-31.7687 -12.3844,-96.9213 -72.691,110.3826 -199.2272,110.3826 -87.7677,0 -134.0745,-50.6145 -39.307,-42.5377 -39.307,-109.3057 0,-149.6896 186.3043,-180.9199 72.691,-12.3844 183.0737,-17.7689 v -29.6148 q 0,-78.614 -34.4609,-109.3058 -30.1533,-26.9226 -95.8445,-26.9226 -118.4594,0 -151.8434,110.9211 z m 346.2246,128.69 q -82.9216,1.6154 -168.5355,17.7689 -132.4591,26.9226 -132.4591,127.0747 0,53.8452 34.4609,82.9216 30.6917,26.3841 82.3831,26.3841 110.9211,0 184.1506,-119.5363 z"
       style="font-style:normal;font-variant:normal;font-weight:normal;font-stretch:normal;font-family:'Yu Gothic';-inkscape-font-specification:'Yu Gothic';stroke-width:91.8957901px"
       id="path5255" />
    <path
       d="m 5837.1676,1421.1611 -5.3846,68.3834 q -58.1528,0 -107.6903,50.0761 -46.3069,46.3068 -69.9988,123.3055 v 323.0711 h -67.3065 v -551.3748 h 65.1527 v 143.2283 q 32.3071,-82.3832 87.2292,-123.3055 45.23,-33.3841 97.9983,-33.3841 z"
       style="font-style:normal;font-variant:normal;font-weight:normal;font-stretch:normal;font-family:'Yu Gothic';-inkscape-font-specification:'Yu Gothic';stroke-width:91.8957901px"
       id="path5257" />
    <path
       d="m 5971.7807,1562.774 q 49.5376,-141.6129 216.9961,-141.6129 195.4581,0 195.4581,183.0737 v 194.3811 q 0,110.3827 13.4613,187.3813 h -64.0758 q -6.9999,-31.7687 -12.3844,-96.9213 -72.691,110.3826 -199.2272,110.3826 -87.7677,0 -134.0745,-50.6145 -39.307,-42.5377 -39.307,-109.3057 0,-149.6896 186.3043,-180.9199 72.6911,-12.3844 183.0737,-17.7689 v -29.6148 q 0,-78.614 -34.4609,-109.3058 -30.1533,-26.9226 -95.8445,-26.9226 -118.4594,0 -151.8434,110.9211 z m 346.2246,128.69 q -82.9216,1.6154 -168.5354,17.7689 -132.4592,26.9226 -132.4592,127.0747 0,53.8452 34.4609,82.9216 30.6918,26.3841 82.3831,26.3841 110.9211,0 184.1506,-119.5363 z"
       style="font-style:normal;font-variant:normal;font-weight:normal;font-stretch:normal;font-family:'Yu Gothic';-inkscape-font-specification:'Yu Gothic';stroke-width:91.8957901px"
       id="path5259" />
    <path
       d="m 7049.7612,1367.316 -5.3845,62.9988 q -44.153,0 -71.6141,11.846 -22.0765,9.6921 -45.23,32.3071 58.1529,46.8453 58.1529,128.69 0,88.8446 -64.6143,139.459 -54.3836,42.5377 -137.3052,42.5377 -49.5376,0 -91.5368,-17.2304 -54.9221,30.6917 -54.9221,65.6911 0,29.6149 23.6918,40.3839 23.1535,10.2306 93.1522,17.2305 l 108.2289,10.769 q 111.998,11.8459 155.0741,50.076 32.3071,28.538 32.3071,80.2294 0,72.691 -73.2294,114.6902 -68.9219,38.7686 -184.689,38.7686 -123.3055,0 -188.4582,-41.9993 -55.4606,-36.0763 -55.4606,-93.6906 0,-41.4608 33.9225,-74.3064 29.0764,-28.5379 78.614,-44.6915 -83.9985,-18.3074 -83.9985,-80.7678 0,-54.3836 76.4602,-106.6135 -69.4603,-50.076 -69.4603,-139.459 0,-87.2292 66.768,-139.459 55.4606,-43.6147 134.613,-43.6147 61.922,0 106.075,25.3073 31.7687,-44.6915 71.6141,-62.9989 35.5378,-16.1535 87.2292,-16.1535 z m -264.9183,102.3058 q -61.922,0 -100.6905,39.8455 -35.5378,36.6147 -35.5378,94.7675 0,65.1527 44.6915,102.3059 36.6147,30.1533 90.9983,30.1533 62.4605,0 100.6905,-39.307 35.5379,-36.0763 35.5379,-93.1522 0,-66.768 -45.23,-103.9212 -36.6147,-30.6918 -90.4599,-30.6918 z m -66.2296,474.3762 q -107.6904,29.6148 -107.6904,97.4597 0,50.0761 57.6144,75.3833 47.3837,20.4612 125.4593,20.4612 97.9982,0 150.2281,-31.7687 42.5377,-26.3841 42.5377,-66.2296 0,-36.6147 -31.2303,-54.9221 -32.3071,-18.8458 -109.8441,-26.9225 z"
       style="font-style:normal;font-variant:normal;font-weight:normal;font-stretch:normal;font-family:'Yu Gothic';-inkscape-font-specification:'Yu Gothic';stroke-width:91.8957901px"
       id="path5261" />
    <path
       d="m 7276.9882,1434.6224 v 551.3748 h -68.3834 v -551.3748 z m 16.1536,-221.8421 v 102.8443 h -101.229 v -102.8443 z"
       style="font-style:normal;font-variant:normal;font-weight:normal;font-stretch:normal;font-family:'Yu Gothic';-inkscape-font-specification:'Yu Gothic';stroke-width:91.8957901px"
       id="path5263" />
  </g>
  <g
     transform="translate(1711.0683,744.86133)"
     id="g4804"
     class="logo"
     style="fill:#000000;fill-opacity:1;stroke:none">
    <path
       sodipodi:nodetypes="ccccccccssccssssccscccccsccssssccssccccccccccccccccccccccccccc"
       inkscape:connector-curvature="0"
       inkscape:export-ydpi="41.360294"
       inkscape:export-xdpi="41.360294"
       id="path4138"
       class="logo"
       transform="translate(-1697.4597,-754.82657)"
       d="m 1147.4472,509.91359 c -16.7091,40.43137 -21.402,71.92264 -26.0097,115.47152 L 1529,796.51953 l -441,189 -441,-189 246.3963,-118.73012 C 879.13122,635.01105 856.65332,610.74295 859.68465,565.65262 L 590,681.51953 c -23.33333,10.66667 -42.16667,26.66667 -56.5,48 -14.33333,21.33333 -21.5,44.66667 -21.5,70 l 0,399.99997 -434,186 c -23.333333,10.6667 -42.166667,26.6667 -56.5,48 -14.3333333,21.3334 -21.5,44.6667 -21.5,70 l 0,416 c 0,24 6.3333333,46.3334 19,67 12.666667,20.6667 30,36.3334 52,47 l 448,224 c 16.66667,9.3334 35.66667,14 57,14 21.33333,0 40.33333,-4.6666 57,-14 l 448,-224 c 3.3333,-1.3333 5.6667,-2.6666 7,-4 1.3333,1.3334 3.6667,2.6667 7,4 l 448,224 c 16.6667,9.3334 35.6667,14 57,14 21.3333,0 40.3333,-4.6666 57,-14 l 448,-224 c 22,-10.6666 39.3333,-26.3333 52,-47 12.6667,-20.6666 19,-43 19,-67 l 0,-416 c 0,-25.3333 -7,-48.6666 -21,-70 -14,-21.3333 -33,-37.3333 -57,-48 l -434,-186 0,-399.99997 c 0,-25.33333 -7.1667,-48.66667 -21.5,-70 -14.3333,-21.33333 -33.1667,-37.33333 -56.5,-48 C 1459.6434,624.0254 1280.9173,564.43796 1147.4472,509.91359 Z M 1536,933.51953 l 0,265.99997 -384,165 0,-267 z m -960,377.99997 404,173 -404,173 -404,-173 z m 1024,0 404,173 -404,173 -404,-173 z m -576,294 0,314 -384,192 0,-342 z m 1024,0 0,314 -384,192 0,-342 z"
       style="fill:#000000;fill-opacity:1;stroke:none" />
    <path
       inkscape:export-ydpi="41.360294"
       inkscape:export-xdpi="41.360294"
       sodipodi:nodetypes="ccccc"
       inkscape:connector-curvature="0"
       id="path4157"
       class="logo"
       d="M -742.04433,-415.20311 C -556.51322,-799.0999 -29.535275,-808.24903 328.76022,-596.89504 -16.437856,-739.81503 -348.61672,-654.85338 -530.63073,-418.54253 -650.19851,-278.50345 -636.40491,-116.55913 -597.8874,59.518874 -790.12964,-57.84971 -825.56554,-240.14192 -742.04433,-415.20311 Z"
       style="opacity:1;fill:#000000;fill-opacity:1;fill-rule:evenodd;stroke:none;stroke-width:70;stroke-linecap:butt;stroke-linejoin:miter;stroke-miterlimit:4;stroke-dasharray:none;stroke-opacity:1" />
  </g>
</svg>
