<?xml version="1.0" encoding="UTF-8" standalone="no"?>
<svg
   xmlns:dc="http://purl.org/dc/elements/1.1/"
   xmlns:cc="http://creativecommons.org/ns#"
   xmlns:rdf="http://www.w3.org/1999/02/22-rdf-syntax-ns#"
   xmlns:svg="http://www.w3.org/2000/svg"
   xmlns="http://www.w3.org/2000/svg"
   xmlns:sodipodi="http://sodipodi.sourceforge.net/DTD/sodipodi-0.dtd"
   xmlns:inkscape="http://www.inkscape.org/namespaces/inkscape"
   width="7491.3706"
   height="2271.5203"
   viewBox="0 0 7491.3706 2271.5203"
   id="svg4136"
   version="1.1"
   inkscape:version="0.92.3 (2405546, 2018-03-11)"
   sodipodi:docname="LRRlogo.svg"
   inkscape:export-filename="C:\Users\Patchouli\Desktop\text4167.png"
   inkscape:export-xdpi="8.4099998"
   inkscape:export-ydpi="8.4099998">
  <metadata
     id="metadata4144">
    <rdf:RDF>
      <cc:Work
         rdf:about="">
        <dc:format>image/svg+xml</dc:format>
        <dc:type
           rdf:resource="http://purl.org/dc/dcmitype/StillImage" />
        <dc:title />
      </cc:Work>
    </rdf:RDF>
  </metadata>
  <defs
     id="defs4142" />
  <sodipodi:namedview
     pagecolor="#ffffff"
     bordercolor="#666666"
     borderopacity="1"
     objecttolerance="10"
     gridtolerance="10"
     guidetolerance="10"
     inkscape:pageopacity="0"
     inkscape:pageshadow="2"
     inkscape:window-width="1600"
     inkscape:window-height="877"
     id="namedview4140"
     showgrid="false"
     inkscape:zoom="0.043799583"
     inkscape:cx="1930.645"
     inkscape:cy="-1108.0248"
     inkscape:window-x="-8"
     inkscape:window-y="-8"
     inkscape:window-maximized="1"
     inkscape:current-layer="svg4136"
     fit-margin-top="0"
     fit-margin-left="0"
     fit-margin-right="0"
     fit-margin-bottom="0" />
  <flowRoot
     xml:space="preserve"
     id="flowRoot4159"
     style="font-style:normal;font-weight:normal;line-height:0.01%;font-family:sans-serif;letter-spacing:0px;word-spacing:0px;fill:#000000;fill-opacity:1;stroke:none;stroke-width:1px;stroke-linecap:butt;stroke-linejoin:miter;stroke-opacity:1"
     transform="translate(256,479.52038)"><flowRegion
       id="flowRegion4161"><rect
         id="rect4163"
         width="2557.1021"
         height="1415.5386"
         x="2203.2173"
         y="193.81126" /></flowRegion><flowPara
       id="flowPara4165"> </flowPara></flowRoot>  <text
     xml:space="preserve"
     style="font-style:normal;font-weight:normal;line-height:0%;font-family:sans-serif;letter-spacing:0px;word-spacing:0px;fill:#000000;fill-opacity:1;stroke:none;stroke-width:1px;stroke-linecap:butt;stroke-linejoin:miter;stroke-opacity:1"
     x="2383.7988"
     y="1962.8818"
     id="text4167"><tspan
       sodipodi:role="line"
       id="tspan4169"
       x="2383.7988"
       y="1962.8818"
       style="font-style:normal;font-variant:normal;font-weight:normal;font-stretch:normal;font-family:'Yu Gothic';-inkscape-font-specification:'Yu Gothic'">LANraragi</tspan></text>
  <g
     transform="translate(1711.0683,744.86133)"
     id="g4804">
    <path
       sodipodi:nodetypes="ccccccccssccssssccscccccsccssssccssccccccccccccccccccccccccccc"
       inkscape:connector-curvature="0"
       inkscape:export-ydpi="41.360294"
       inkscape:export-xdpi="41.360294"
       id="path4138"
       transform="translate(-1697.4597,-754.82657)"
       d="m 1147.4472,509.91359 c -16.7091,40.43137 -21.402,71.92264 -26.0097,115.47152 L 1529,796.51953 l -441,189 -441,-189 246.3963,-118.73012 C 879.13122,635.01105 856.65332,610.74295 859.68465,565.65262 L 590,681.51953 c -23.33333,10.66667 -42.16667,26.66667 -56.5,48 -14.33333,21.33333 -21.5,44.66667 -21.5,70 l 0,399.99997 -434,186 c -23.333333,10.6667 -42.166667,26.6667 -56.5,48 -14.3333333,21.3334 -21.5,44.6667 -21.5,70 l 0,416 c 0,24 6.3333333,46.3334 19,67 12.666667,20.6667 30,36.3334 52,47 l 448,224 c 16.66667,9.3334 35.66667,14 57,14 21.33333,0 40.33333,-4.6666 57,-14 l 448,-224 c 3.3333,-1.3333 5.6667,-2.6666 7,-4 1.3333,1.3334 3.6667,2.6667 7,4 l 448,224 c 16.6667,9.3334 35.6667,14 57,14 21.3333,0 40.3333,-4.6666 57,-14 l 448,-224 c 22,-10.6666 39.3333,-26.3333 52,-47 12.6667,-20.6666 19,-43 19,-67 l 0,-416 c 0,-25.3333 -7,-48.6666 -21,-70 -14,-21.3333 -33,-37.3333 -57,-48 l -434,-186 0,-399.99997 c 0,-25.33333 -7.1667,-48.66667 -21.5,-70 -14.3333,-21.33333 -33.1667,-37.33333 -56.5,-48 C 1459.6434,624.0254 1280.9173,564.43796 1147.4472,509.91359 Z M 1536,933.51953 l 0,265.99997 -384,165 0,-267 z m -960,377.99997 404,173 -404,173 -404,-173 z m 1024,0 404,173 -404,173 -404,-173 z m -576,294 0,314 -384,192 0,-342 z m 1024,0 0,314 -384,192 0,-342 z" />
    <path
       inkscape:export-ydpi="41.360294"
       inkscape:export-xdpi="41.360294"
       sodipodi:nodetypes="ccccc"
       inkscape:connector-curvature="0"
       id="path4157"
       d="M -742.04433,-415.20311 C -556.51322,-799.0999 -29.535275,-808.24903 328.76022,-596.89504 -16.437856,-739.81503 -348.61672,-654.85338 -530.63073,-418.54253 -650.19851,-278.50345 -636.40491,-116.55913 -597.8874,59.518874 -790.12964,-57.84971 -825.56554,-240.14192 -742.04433,-415.20311 Z"
       style="opacity:1;fill:#000000;fill-opacity:1;fill-rule:evenodd;stroke:none;stroke-width:70;stroke-linecap:butt;stroke-linejoin:miter;stroke-miterlimit:4;stroke-dasharray:none;stroke-opacity:1" />
  </g>
</svg>
